<?xml version="1.0" standalone="no"?>
<!DOCTYPE svg PUBLIC "-//W3C//DTD SVG 1.1//EN" "http://www.w3.org/Graphics/SVG/1.1/DTD/svg11.dtd" >
<svg xmlns="http://www.w3.org/2000/svg">
<metadata>
This is a custom SVG webfont generated by Font Squirrel.
Copyright   : Copyright c 2011 Gesine Todt wwwgesinetodtde with Reserved Font Name Snippet This Font Software is licensed under the SIL Open Font License Version 11 This license is available with a FAQ at httpscriptssilorgOFL
Designer    : Gesine Todt
Foundry     : Gesine Todt
Foundry URL : httpwwwgesinetodtde
</metadata>
<defs>
<font id="SnippetRegular" horiz-adv-x="1064" >
<font-face units-per-em="2048" ascent="1638" descent="-410" />
<missing-glyph horiz-adv-x="614" />
<glyph unicode=" "  horiz-adv-x="614" />
<glyph unicode="&#x09;" horiz-adv-x="614" />
<glyph unicode="&#xa0;" horiz-adv-x="614" />
<glyph unicode="!" horiz-adv-x="552" d="M246 489q0 80 29.5 307.5t59.5 415.5l30 189h118q-123 -734 -123 -912q0 -27 5.5 -54t10.5 -42l5 -14l-115 -25q-20 61 -20 135zM260 92q0 47 34 82t81 35q49 0 83 -35t34 -82t-34 -81t-83 -34q-47 0 -81 34t-34 81z" />
<glyph unicode="&#x22;" horiz-adv-x="577" d="M102 1401h148l-21 -393h-106zM328 1401h147l-20 -393h-107z" />
<glyph unicode="#" horiz-adv-x="950" d="M82 377v110h158l41 220h-148v110h172l74 367h119l-72 -367h190l72 367h119l-72 -367h133v-110h-157l-41 -220h147v-110h-170l-76 -377h-118l73 377h-190l-74 -377h-119l74 377h-135zM360 487h189l41 220h-189z" />
<glyph unicode="$" horiz-adv-x="1140" d="M82 131l68 98q182 -115 346 -133v563q-76 25 -129.5 51.5t-106.5 70.5t-79.5 109.5t-26.5 153.5q0 121 93 209t249 103v180h118v-180q219 -18 400 -148l-68 -98q-178 111 -332 131v-496q76 -25 119 -40t105.5 -48.5t95.5 -71.5t58.5 -99.5t25.5 -139.5q0 -170 -115 -259 t-289 -103v-127h-118v125q-233 14 -414 149zM281 1044q0 -100 56 -158.5t159 -99.5v459q-100 -10 -157.5 -65.5t-57.5 -135.5zM614 94q277 23 277 252q0 111 -71.5 170t-205.5 105v-527z" />
<glyph unicode="%" horiz-adv-x="1536" d="M205 1053q0 133 67.5 219t178.5 86q109 0 177 -87t68 -218t-68 -217t-177 -86q-111 0 -178.5 86t-67.5 217zM315 1052.5q0 -98.5 37 -160t98.5 -61.5t98.5 61.5t37 160t-37 161t-98.5 62.5t-98.5 -62.5t-37 -161zM565 0l449 1337h119l-447 -1337h-121zM1004 283 q0 133 67.5 219t177.5 86q109 0 177.5 -87t68.5 -218t-68.5 -217t-177.5 -86q-111 0 -178 86t-67 217zM1114 282.5q0 -98.5 37 -160t98.5 -61.5t98 61.5t36.5 160t-36.5 161t-98 62.5t-98.5 -62.5t-37 -161z" />
<glyph unicode="&#x26;" horiz-adv-x="1241" d="M123 340q0 117 58.5 221.5t168.5 159.5q-104 123 -104 262q0 137 93 226t269 89q49 0 234 -16v-106q-213 16 -248 16q-113 0 -164 -57.5t-51 -151.5q0 -37 13.5 -74t26.5 -61.5t50 -64.5t51.5 -54t64.5 -59t58 -54l309 -290q82 143 82 323v82h109v-86q0 -223 -109 -393 l187 -174l-74 -84l-182 168q-172 -182 -443 -182q-172 0 -285.5 98t-113.5 262zM240 348q0 -119 81.5 -190.5t200.5 -71.5q225 0 363 147l-305 283l-150 127q-94 -43 -142 -124t-48 -171z" />
<glyph unicode="'" horiz-adv-x="352" d="M102 1401h148l-21 -393h-106z" />
<glyph unicode="(" horiz-adv-x="784" d="M102 602q0 291 134.5 541t394.5 393l51 -88q-197 -113 -326 -353.5t-129 -492.5t129 -491.5t326 -352.5l-51 -88q-260 143 -394.5 393t-134.5 539z" />
<glyph unicode=")" horiz-adv-x="845" d="M164 -242q197 113 325.5 352.5t128.5 491.5t-129 492.5t-325 353.5l51 88q260 -143 394 -393t134 -541q0 -289 -134 -539t-394 -393z" />
<glyph unicode="*" horiz-adv-x="849" d="M123 1151l39 117l215 -84l-12 237h122l-14 -239l219 86l35 -117l-213 -59l137 -166l-100 -70l-125 193l-127 -197l-98 74l139 168z" />
<glyph unicode="+" horiz-adv-x="966" d="M102 549v104h324v328h115v-328h323v-104h-323v-330h-115v330h-324z" />
<glyph unicode="," horiz-adv-x="509" d="M123 -260q82 88 82 244v122q0 29 19.5 48.5t45.5 19.5q29 0 47.5 -19.5t18.5 -48.5v-122q0 -209 -143 -312z" />
<glyph unicode="-" horiz-adv-x="1017" d="M205 567v117h608v-117h-608z" />
<glyph unicode="." horiz-adv-x="641" d="M205 92q0 47 33.5 82t80.5 35q49 0 83 -35t34 -82t-33.5 -81t-83.5 -34q-47 0 -80.5 34t-33.5 81z" />
<glyph unicode="/" horiz-adv-x="802" d="M102 -143l449 1679h129l-447 -1679h-131z" />
<glyph unicode="0" horiz-adv-x="1396" d="M143 668q0 299 154 494.5t401.5 195.5t401 -195.5t153.5 -494.5q0 -297 -153.5 -492.5t-401 -195.5t-401.5 195.5t-154 492.5zM272 668q0 -254 119 -415t309.5 -161t308 160t117.5 416t-118 416.5t-308 160.5q-193 0 -310.5 -159.5t-117.5 -417.5z" />
<glyph unicode="1" horiz-adv-x="794" d="M20 1067l25 88q31 -6 59 -6q90 0 193 57q41 23 256 164h16v-1370h-125v1174q-53 -43 -92 -66q-117 -66 -221 -66q-55 0 -111 25z" />
<glyph unicode="2" horiz-adv-x="1005" d="M51 0v27q0 133 73 248.5t177.5 198.5t208.5 161t177 169t73 189q0 123 -69.5 190.5t-201.5 67.5q-158 0 -370 -16v106q184 16 356 17q209 0 305.5 -99.5t96.5 -271.5q0 -115 -63.5 -214t-158 -173t-191.5 -144.5t-178 -157.5t-104 -181h762v-117h-893z" />
<glyph unicode="3" horiz-adv-x="1021" d="M72 2v111q162 -20 344 -21q178 0 270 67.5t92 225.5q0 182 -157 320q-121 -45 -297 -46h-39v113h43q66 0 115 4t102 18.5t87 40t56.5 71t22.5 108.5q0 238 -271 237q-137 0 -350 -16v106q184 16 336 17q401 0 401 -350q0 -162 -106 -246q178 -152 178 -385 q0 -199 -125 -298t-352 -99q-70 0 -157 6t-140 11z" />
<glyph unicode="4" horiz-adv-x="1200" d="M143 485l123 852h125l-106 -735h616v735h125v-1337h-125v485h-758z" />
<glyph unicode="5" horiz-adv-x="1052" d="M31 1329l67 70q80 -74 244 -74l502 12v-116q-244 -8 -502 -9h-57v-393q80 20 184 21q229 0 355 -103.5t126 -314.5q0 -197 -125 -319.5t-352 -122.5q-70 0 -157 6t-140 11l-53 5v113q162 -20 344 -21q180 0 271 89t91 247q0 160 -101 227.5t-290 67.5q-66 0 -132 -10 t-101 -21l-35 -10l-10 8v543q-84 31 -129 94z" />
<glyph unicode="6" horiz-adv-x="1206" d="M143 668q0 381 143.5 535.5t418.5 154.5q70 0 253 -17v-106q-213 16 -268 16q-217 0 -312 -136t-106 -386q174 72 355 72q225 0 330.5 -104.5t105.5 -286.5q0 -201 -108.5 -315.5t-327.5 -114.5q-168 0 -279.5 93t-158 242.5t-46.5 352.5zM272 618q10 -240 102.5 -383 t254.5 -143q309 0 309 322q0 274 -309 274q-160 0 -357 -70z" />
<glyph unicode="7" horiz-adv-x="946" d="M41 1329l68 70q78 -72 243 -72q57 0 243.5 5t278.5 5v-16l-520 -1321h-131l490 1221q-199 -6 -361 -7q-229 0 -311 115z" />
<glyph unicode="8" horiz-adv-x="1181" d="M133 373q0 70 20.5 130t62.5 110.5t72.5 78t84.5 70.5q-166 94 -166 264q0 143 104.5 240.5t278.5 97.5q172 0 277.5 -98.5t105.5 -239.5q0 -162 -189 -287q264 -119 265 -366q0 -176 -118 -291t-339 -115t-340 115t-119 291zM260 377q0 -133 87 -216t245 -83t244 83 t86 216q0 59 -24 108.5t-57.5 81t-91 59t-102.5 42t-115 32.5l-45 13q-4 -4 -12 -11q-67 -55 -103 -89.5t-74 -101.5t-38 -134zM334 1024q0 -43 19.5 -78t42 -55.5t70.5 -42t74 -28.5t83 -23q2 0 20.5 -6.5t28.5 -8.5q84 59 129 113.5t45 128.5q0 98 -70.5 162.5 t-185.5 64.5t-185.5 -63.5t-70.5 -163.5z" />
<glyph unicode="9" horiz-adv-x="1206" d="M143 928q0 201 108.5 315.5t328.5 114.5q168 0 279.5 -93.5t157.5 -242.5t46 -352q0 -381 -143.5 -535.5t-417.5 -154.5q-70 0 -254 16v106q213 -16 268 -16q215 0 311.5 137t104.5 385q-170 -72 -352 -71q-225 0 -331 104t-106 287zM268 924q1 -275 310 -275 q178 0 354 70q-8 240 -100.5 383t-253.5 143q-309 0 -310 -321z" />
<glyph unicode=":" horiz-adv-x="641" d="M246 92q0 47 33.5 82t80.5 35q49 0 83 -35t34 -82t-33.5 -81t-83.5 -34q-47 0 -80.5 34t-33.5 81zM246 905q0 47 33.5 82t80.5 35q49 0 83 -35t34 -82t-33.5 -80.5t-83.5 -33.5q-47 0 -80.5 33.5t-33.5 80.5z" />
<glyph unicode=";" horiz-adv-x="641" d="M211 -260q82 88 82 244v122q0 29 19.5 48.5t45.5 19.5q29 0 47.5 -19.5t18.5 -48.5v-122q0 -209 -143 -312zM246 905q0 47 33.5 82t80.5 35q49 0 83 -35t34 -82t-33.5 -80.5t-83.5 -33.5q-47 0 -80.5 33.5t-33.5 80.5z" />
<glyph unicode="&#x3c;" horiz-adv-x="800" d="M61 543l545 379l66 -97l-402 -278l406 -283l-70 -100z" />
<glyph unicode="=" horiz-adv-x="966" d="M123 383v106h721v-106h-721zM123 711v106h721v-106h-721z" />
<glyph unicode="&#x3e;" horiz-adv-x="800" d="M123 821l70 101l544 -379l-544 -379l-66 96l401 279z" />
<glyph unicode="?" horiz-adv-x="880" d="M102 1300v107q184 16 357 16q209 0 305 -99t96 -271q0 -82 -32.5 -147.5t-81 -104.5t-105.5 -78t-105.5 -67.5t-81 -71.5t-32.5 -95q0 -27 5 -54t10 -42l5 -14l-120 -25q-20 61 -21 135q0 88 45 153t110.5 104.5t131 78.5t110.5 97.5t45 136.5q0 123 -69.5 190.5 t-200.5 67.5q-158 0 -371 -17zM330 92q0 47 33.5 82t80.5 35q49 0 83 -35t34 -82t-33.5 -81t-83.5 -34q-47 0 -80.5 34t-33.5 81z" />
<glyph unicode="@" horiz-adv-x="1554" d="M184 477q0 287 165 467t446 180q272 0 439 -166.5t167 -433.5q0 -162 -84 -253t-197 -91q-180 0 -209 168q-39 -127 -178 -127q-76 0 -124 46t-48 130q0 88 72 129t176 41h82v49q0 115 -111 115q-59 0 -149 -49l-45 74q106 63 194 63q205 0 205 -192v-189q0 -88 41 -127 t94 -39q63 0 117.5 65.5t54.5 190.5q0 227 -138 363.5t-359 136.5q-227 0 -363.5 -151.5t-136.5 -393.5q0 -229 138 -367.5t362 -138.5q166 0 399 76l29 -92q-233 -82 -428 -82q-274 0 -442.5 165t-168.5 433zM657 397q0 -41 28 -66.5t71 -25.5q47 0 85 54.5t48 129.5h-80 q-152 0 -152 -92z" />
<glyph unicode="A" horiz-adv-x="1300" d="M20 0l609 1440h39l612 -1440h-131l-199 465h-604l-194 -465h-132zM395 582h506l-203 477q-29 66 -51 160q-20 -92 -49 -160z" />
<glyph unicode="B" horiz-adv-x="1265" d="M20 1413l68 70q88 -82 244 -82q57 0 144 10t179 10q182 0 298 -102t116 -266q0 -215 -197 -301q119 -47 190 -146.5t71 -224.5q0 -184 -128 -294t-350 -110q-115 0 -218 5.5t-148 11.5l-45 6v1292q-152 23 -224 121zM369 100q133 -10 280 -10q172 0 267.5 79t95.5 220 q0 125 -96.5 209t-247.5 86h-9h-290v-584zM369 797h284q131 0 212 67.5t81 188.5t-80 188.5t-217 67.5q-98 0 -174 -10.5t-106 -10.5v-491z" />
<glyph unicode="C" horiz-adv-x="1318" d="M123 700q0 309 187.5 515t484.5 206q215 0 328.5 -76.5t113.5 -207.5q0 -121 -108.5 -193t-333.5 -72h-529q-18 -80 -18 -172h-125zM123 700h125q0 -276 119.5 -442t345.5 -166q115 0 243.5 51.5t217.5 108.5l53 -92q-84 -66 -223 -123t-291 -57q-291 0 -440.5 199.5 t-149.5 520.5zM299 979h496q174 0 243.5 39t69.5 119q0 172 -313 172q-170 0 -300 -88t-196 -242z" />
<glyph unicode="D" horiz-adv-x="1574" d="M10 1413l68 70q88 -82 244 -82q57 0 192 10t227 10q322 0 516.5 -204.5t194.5 -516.5q0 -313 -194.5 -516.5t-516.5 -203.5q-186 0 -313 5t-161 10l-34 5v1292q-152 23 -223 121zM358 102q139 -10 383 -10q268 0 428 168t160 440.5t-160 440.5t-428 168q-82 0 -210 -10.5 t-173 -10.5v-1186z" />
<glyph unicode="E" horiz-adv-x="1214" d="M195 0v1401h917v-117h-793v-485h650v-117h-650v-565h834v-117h-958z" />
<glyph unicode="F" horiz-adv-x="1132" d="M195 0v1401h917v-117h-793v-502h650v-116h-650v-666h-124z" />
<glyph unicode="G" horiz-adv-x="1411" d="M123 700q0 311 191.5 516t500.5 205q217 0 340 -77.5t123 -206.5q0 -121 -108.5 -193t-333.5 -72h-570q-18 -80 -18 -172q0 -279 125 -443.5t360 -164.5q102 0 179 33t115 77t60.5 102t27.5 95t5 72v170h121v-1153h-121v666q-123 -174 -387 -174q-305 0 -457.5 198.5 t-152.5 521.5zM301 979h535q174 0 243.5 39t69.5 119q0 84 -89 128t-245 44q-180 0 -314 -88t-200 -242z" />
<glyph unicode="H" horiz-adv-x="1394" d="M195 0v1401h124v-615h756v615h125v-1401h-125v670h-756v-670h-124z" />
<glyph unicode="I" horiz-adv-x="514" d="M195 0v1401h124v-1401h-124z" />
<glyph unicode="J" horiz-adv-x="919" d="M72 1284v117h653v-1022q0 -420 -264 -420q-135 0 -220 105.5t-85 314.5q0 233 115.5 360t340.5 146v399h-540zM279 379q0 -150 48 -230.5t134 -80.5q80 0 115.5 67.5t35.5 243.5v399q-172 -16 -252.5 -112.5t-80.5 -286.5z" />
<glyph unicode="K" horiz-adv-x="1249" d="M195 0v1401h124v-631h328l-4 -14h2l2 14h6l398 647l106 -65l-373 -600q172 -51 244 -248l180 -504h-131l-143 426q-23 66 -41.5 102.5t-51 70.5t-84.5 47t-130 13h-308v-659h-124z" />
<glyph unicode="L" horiz-adv-x="1030" d="M195 0v1401h124v-1284h670v-117h-794z" />
<glyph unicode="M" horiz-adv-x="1667" d="M195 0v1419h38l545 -694q15 -22 43 -49l613 743h39v-1419h-125v930q0 94 16 233q-125 -174 -176 -233l-279 -330q91 -65 187 -88l-31 -92q-240 51 -412 262l-200 248q-68 84 -150 211q16 -135 16 -211v-930h-124z" />
<glyph unicode="N" horiz-adv-x="1564" d="M195 0v1421h38l945 -1126q37 -47 69 -76q-8 72 -8 168v1016h125v-1272q60 -33 109 -43l-31 -92q-90 18 -170 64t-123 88t-96 104l-586 680q-63 72 -162 217q14 -162 14 -217v-932h-124z" />
<glyph unicode="O" horiz-adv-x="1628" d="M123 700.5q0 311.5 191.5 516t500.5 204.5q92 0 237.5 -10t202.5 -10q156 0 244 82l68 -70q-82 -113 -264 -125q202 -261 202 -585q0 -314 -191.5 -518.5t-498.5 -204.5q-309 0 -500.5 204.5t-191.5 516zM248 700.5q0 -270.5 156.5 -439.5t410.5 -169t410.5 169 t156.5 439q0 119 -28.5 227.5t-74.5 183.5t-74.5 113t-57.5 66q-301 18 -334 19q-252 0 -408.5 -169t-156.5 -439.5z" />
<glyph unicode="P" horiz-adv-x="1142" d="M10 1413l68 70q88 -82 244 -82q57 0 144 10t179 10q190 0 308 -126t118 -318.5t-117.5 -319.5t-308.5 -127l-182 5v112q84 -4 176 -4q139 0 225 92t86 242q0 147 -86 239.5t-225 92.5q-98 0 -174 -10.5t-107 -10.5v-1288h-125v1292q-152 23 -223 121z" />
<glyph unicode="Q" horiz-adv-x="1628" d="M123 700q0 311 191.5 516t500.5 205q307 0 498.5 -204.5t191.5 -516t-191.5 -516t-498.5 -204.5q-10 0 -29.5 1t-27.5 1l-121 -175l164 -55q119 -41 241 -41q84 0 185 72l51 -90q-121 -88 -236 -88q-131 0 -266 45l-203 67l-86 -125l-88 68l242 340q-238 55 -378 246.5 t-140 453.5zM248 700.5q0 -270.5 156.5 -439.5t410.5 -169t410.5 169t156.5 439.5t-156.5 439.5t-410.5 169t-410.5 -169t-156.5 -439.5z" />
<glyph unicode="R" horiz-adv-x="1210" d="M10 1413l68 70q88 -82 244 -82q57 0 144 10t179 10q182 0 298 -114.5t116 -290.5q0 -137 -68.5 -230.5t-189.5 -130.5q115 -53 184 -213l184 -442h-135l-143 365q-47 121 -125 182t-211 61h-197v-608h-125v1292q-152 23 -223 121zM358 721h285q129 0 211 80t82 215 q0 133 -81 213t-216 80q-98 0 -174 -10.5t-107 -10.5v-567z" />
<glyph unicode="S" horiz-adv-x="1089" d="M72 131l67 98q221 -137 414 -137q145 0 236.5 60.5t91.5 193.5q0 72 -26 125t-82 93t-103 62.5t-129 53.5q-70 27 -96.5 38t-87 39.5t-88 55.5t-62.5 69t-49.5 96t-14.5 122q0 133 111 224t291 91q47 0 108.5 -2t75.5 -2q68 0 109 15.5t84 56.5l67 -70 q-51 -72 -109.5 -93.5t-150.5 -21.5q-20 0 -90 2.5t-115 2.5q-119 0 -186.5 -57.5t-67.5 -145.5q0 -72 24.5 -124t84 -90t99.5 -55.5t130 -50.5q84 -31 143.5 -60.5t124 -79.5t98.5 -124t34 -170q0 -186 -138.5 -276t-339.5 -90q-252 0 -458 151z" />
<glyph unicode="T" horiz-adv-x="1165" d="M31 1284v117h1104v-117h-490v-1284h-125v1284h-489z" />
<glyph unicode="U" horiz-adv-x="1464" d="M184 547v854h125v-854q0 -211 116 -333t306 -122q193 0 308.5 122t115.5 333v854h125v-854q0 -252 -150.5 -409.5t-396.5 -157.5q-248 0 -398.5 156.5t-150.5 410.5z" />
<glyph unicode="V" horiz-adv-x="1349" d="M72 1391l121 30l342 -1142q51 -184 202 -199l434 1341l117 -35l-452 -1402q-53 -12 -107 -13q-123 0 -201.5 79t-113.5 198z" />
<glyph unicode="W" horiz-adv-x="1990" d="M82 1393l121 30l295 -1144q25 -94 68.5 -143.5t123.5 -55.5l258 577v510h125v-510l176 -415q61 -150 187 -162l366 1345l117 -34l-381 -1407q-51 -12 -106 -13q-209 0 -304 240l-116 295l-234 -522q-53 -12 -106 -13q-121 0 -192.5 79t-102.5 198z" />
<glyph unicode="X" horiz-adv-x="1200" d="M102 0l320 748q-82 78 -125 196l-168 445l119 32l170 -446q33 -82 82 -132t143 -73l19 -6l290 657l119 -32l-299 -682q90 -70 143 -203l203 -504h-131l-192 473q-35 86 -91.5 132t-150.5 69l-25 6l-290 -680h-136z" />
<glyph unicode="Y" horiz-adv-x="1089" d="M72 1393l121 30l198 -592q61 -197 246 -198l274 788l117 -35l-295 -849q-57 -12 -104 -13v-524h-125v541q-168 57 -234 260z" />
<glyph unicode="Z" horiz-adv-x="1107" d="M82 0v27l735 1257h-694v117h883v-27l-736 -1257h777v-117h-965z" />
<glyph unicode="[" horiz-adv-x="671" d="M102 -356v1892h488v-117h-363v-1659h363v-116h-488z" />
<glyph unicode="\" horiz-adv-x="802" d="M102 1536h129l449 -1679h-131z" />
<glyph unicode="]" horiz-adv-x="671" d="M82 -240h362v1659h-362v117h487v-1892h-487v116z" />
<glyph unicode="^" d="M154 743l358 517h41l358 -517l-102 -71l-281 401l-276 -397z" />
<glyph unicode="_" horiz-adv-x="901" d="M0 -160h901v-112h-901v112z" />
<glyph unicode="`" d="M334 1386l74 101l323 -256l-45 -70z" />
<glyph unicode="a" horiz-adv-x="1007" d="M82 272q0 158 125 229.5t307 71.5h199v115q0 127 -51.5 186.5t-161.5 59.5q-154 0 -303 -111l-56 86q63 55 160.5 93t198.5 38q326 0 325 -329v-416q0 -158 80 -244l-69 -67q-76 57 -107 163q-83 -167 -319 -167q-145 0 -236.5 76.5t-91.5 215.5zM199 272 q0 -186 211 -186q127 0 213 69.5t90 192.5v121h-199q-315 0 -315 -197z" />
<glyph unicode="b" horiz-adv-x="1132" d="M174 20v1467h113v-600q98 153 307 153q203 0 319.5 -149.5t116.5 -376.5q0 -231 -132 -382.5t-345 -151.5q-109 0 -203 10t-135 20zM287 104q147 -18 264 -18q164 0 263 116.5t99 305.5q0 178 -83.5 302t-235.5 124q-111 0 -203 -68.5t-104 -193.5v-568z" />
<glyph unicode="c" horiz-adv-x="890" d="M123 506q0 96 17.5 181t58.5 169t124 134t201 50q90 0 275 -16v-106q-213 16 -289 16q-270 0 -270 -422q0 -205 85 -315.5t240 -110.5q119 0 273 98l53 -86q-151 -118 -327 -118h-3q-203 0 -320.5 138t-117.5 388z" />
<glyph unicode="d" horiz-adv-x="1142" d="M102 506q0 231 132.5 382.5t345.5 151.5q125 0 268 -18v467h113v-1194q0 -158 79 -244l-69 -67q-80 59 -109 176q-43 -84 -128.5 -132t-194.5 -48q-203 0 -320 149.5t-117 376.5zM219 512q0 -178 84 -302t236 -124q121 0 215 79t94 220v528q-164 20 -266 21 q-164 0 -263.5 -117t-99.5 -305z" />
<glyph unicode="e" d="M123 506q0 219 125 376.5t319 157.5q158 0 264.5 -85t106.5 -226q0 -168 -129 -243.5t-322 -75.5h-241q37 -324 344 -324q137 0 319 98l54 -86q-173 -118 -370 -118h-3q-229 0 -348 136t-119 390zM240 516h247q334 0 334 213q0 94 -70.5 152.5t-183.5 58.5 q-143 0 -234 -128t-93 -296z" />
<glyph unicode="f" horiz-adv-x="804" d="M174 -512v1524q0 491 321 491h1q145 0 222 -84t77 -207q0 -182 -111 -290.5t-299 -108.5h-98v-221h303v-107h-303v-997h-113zM287 920h98q150 0 221.5 83.5t71.5 208.5q0 78 -48 131.5t-134 53.5q-209 0 -209 -379v-98z" />
<glyph unicode="g" horiz-adv-x="1208" d="M51 227q0 104 85 165t218 65q-74 90 -73 225q0 164 107.5 261t277.5 97q70 0 141 -20h338v-105l-187 13q92 -96 93 -246q0 -164 -107.5 -260t-277.5 -96q-115 0 -201 43q-41 4 -68 4q-96 0 -164.5 -33t-68.5 -107q0 -76 62.5 -101.5t185.5 -25.5q41 0 136 3.5t146 3.5 q98 0 174 -11.5t147.5 -42t111.5 -93t40 -152.5q0 -123 -78.5 -203t-186 -108.5t-238.5 -28.5q-129 0 -233.5 29.5t-180.5 108.5t-76 202q0 111 10 223q-133 55 -133 190zM287 -186q0 -113 96 -173.5t281 -60.5q102 0 183 17.5t144.5 72t63.5 144.5q0 59 -30 98t-86 58.5 t-115.5 26.5t-139.5 7q-31 0 -113 -3t-127 -3q-90 0 -151 10q-6 -68 -6 -194zM393 684q0 -115 73 -182.5t198 -67.5q123 0 196.5 68.5t73.5 181.5t-73.5 181.5t-196.5 68.5q-125 0 -198 -67.5t-73 -182.5z" />
<glyph unicode="h" horiz-adv-x="1110" d="M174 0v1487h113v-627q129 180 334 180q344 0 344 -329q0 -104 -8.5 -246.5t-8.5 -202.5q0 -137 49 -262h-108q-53 102 -53 274q0 57 8 184.5t8 229.5q0 246 -231 246q-102 0 -180.5 -51.5t-153.5 -155.5v-727h-113z" />
<glyph unicode="i" horiz-adv-x="483" d="M113 967l69 67q125 -90 125 -311v-723h-112v723q0 156 -82 244zM139 1356q0 39 28 67.5t66 28.5q41 0 69 -27.5t28 -68.5q0 -39 -29 -66.5t-67.5 -27.5t-66.5 27.5t-28 66.5z" />
<glyph unicode="j" horiz-adv-x="487" d="M117 967l69 67q125 -90 125 -311v-1235h-112v1235q0 156 -82 244zM143 1356q0 39 28 67.5t67 28.5q41 0 68.5 -27.5t27.5 -68.5q0 -39 -29 -66.5t-67.5 -27.5t-66.5 27.5t-28 66.5z" />
<glyph unicode="k" horiz-adv-x="1079" d="M174 0v1487h113v-649q105 202 319 202h2q156 0 254.5 -85t98.5 -226q0 -219 -220 -291q76 -49 119 -139l137 -299h-127l-110 246q-35 78 -84 119t-129 45h-2h-17h-241v-410h-113zM291 516h237q188 0 252 60.5t64 152.5q0 96 -62.5 153.5t-173.5 57.5q-141 0 -229 -128 t-88 -296z" />
<glyph unicode="l" horiz-adv-x="501" d="M174 293v1194h113v-1194q0 -156 82 -244l-70 -67q-125 90 -125 311z" />
<glyph unicode="m" horiz-adv-x="1673" d="M102 967l70 67q82 -57 111 -180q111 186 319 186q102 0 178 -48t109 -142q57 94 142 142t173 48q150 0 238 -87t88 -242q0 -104 -9.5 -246.5t-9.5 -202.5q0 -137 50 -262h-109q-53 102 -53 274q0 57 8 184.5t8 229.5q0 246 -209 246q-188 0 -295 -203v-20v-711h-112v688 q0 246 -209 246q-86 0 -169 -55.5t-124 -145.5v-10v-723h-113v723q0 156 -82 244z" />
<glyph unicode="n" horiz-adv-x="1120" d="M102 967l70 67q88 -63 113 -188q132 194 344 194h2q344 0 344 -329q0 -104 -8.5 -246.5t-8.5 -202.5q1 -137 50 -262h-109q-53 102 -53 274q0 57 8 184.5t8 229.5q0 246 -231 246q-102 0 -180 -51.5t-154 -155.5v-4v-723h-113v723q0 156 -82 244z" />
<glyph unicode="o" horiz-adv-x="1222" d="M102 505.5q0 231.5 141.5 383t369 151.5t367.5 -149.5t140 -378.5q0 -233 -140.5 -382.5t-367.5 -149.5q-229 0 -369.5 147t-140.5 378.5zM219 512q0 -193 107.5 -309.5t285.5 -116.5q176 0 284 120t108 310q0 188 -108 303t-284 115q-178 0 -285.5 -116t-107.5 -306z " />
<glyph unicode="p" horiz-adv-x="1142" d="M102 967l70 67q82 -61 109 -172q43 84 128.5 131t194.5 47q203 0 319.5 -149.5t116.5 -376.5q0 -231 -132 -382.5t-345 -151.5q-123 0 -266 18v-510h-113v1235q0 156 -82 244zM297 104q147 -18 264 -18q164 0 263.5 116.5t99.5 305.5q0 178 -84 302t-236 124 q-111 0 -203 -68.5t-104 -193.5v-568z" />
<glyph unicode="q" horiz-adv-x="1142" d="M113 506q0 231 132 382.5t345 151.5q109 0 203 -10t135 -20l41 -11v-1511h-113v643q-97 -151 -304 -151h-3q-203 0 -319.5 149.5t-116.5 376.5zM229 512q0 -178 84 -302t236 -124q111 0 203 68.5t104 193.5v565q-123 20 -264 21q-164 0 -263.5 -117t-99.5 -305z" />
<glyph unicode="r" horiz-adv-x="745" d="M102 967l70 67q86 -63 113 -180q106 186 299 186q29 0 58.5 -4t45.5 -8l17 -4v-106q-61 14 -136 14q-158 0 -272 -201v-8v-723h-113v723q0 156 -82 244z" />
<glyph unicode="s" horiz-adv-x="854" d="M72 98l57 86q150 -98 305 -98q96 0 157.5 41t61.5 129q0 78 -54 127t-131 76.5t-153.5 59.5t-131 99.5t-54.5 174.5q0 102 83 174.5t216 72.5q109 0 246 -12v-106q-160 12 -260 12q-76 0 -121 -41t-45 -100q0 -78 54 -126.5t131 -76t154 -59t131 -100.5t54 -175 q0 -141 -102.5 -208.5t-251.5 -67.5h-3q-192 0 -343 118z" />
<glyph unicode="t" horiz-adv-x="815" d="M113 1276l69 67q125 -90 125 -311v-12h324v-113h-324v-614q0 -207 154 -207q109 0 270 98l53 -86q-45 -37 -147 -77.5t-197 -40.5q-245 0 -245 313v739q0 156 -82 244z" />
<glyph unicode="u" horiz-adv-x="1097" d="M113 999l98 33q59 -92 59 -287q0 -57 -8 -184t-8 -229q0 -127 52 -186.5t169 -59.5q102 0 175 51t153 160v723h112v-725q0 -158 80 -244l-69 -67q-88 63 -113 194q-128 -198 -336 -198h-2q-334 0 -334 329q0 104 8.5 246.5t8.5 202.5q0 139 -45 241z" />
<glyph unicode="v" horiz-adv-x="1056" d="M72 999l110 31l215 -751q51 -188 199 -209l303 960l107 -35l-318 -1011q-53 -12 -96 -13q-123 0 -196.5 79t-108.5 198z" />
<glyph unicode="w" horiz-adv-x="1568" d="M92 999l111 31l184 -751q43 -193 180 -209l174 505v445h115v-445l105 -296q33 -96 71.5 -146.5t104.5 -60.5l254 958l106 -35l-266 -1011q-51 -12 -96 -13q-201 0 -285 277l-53 174l-140 -438q-51 -12 -96 -13q-215 0 -285 277z" />
<glyph unicode="x" horiz-adv-x="960" d="M92 0l234 545q-76 72 -121 205l-92 245l108 33l94 -248q35 -88 79 -137t136 -72q2 -2 9 -2l204 459l109 -33l-209 -477q88 -61 139 -209l107 -309h-121l-96 279q-31 90 -84 136t-148 68q-6 0 -14 4l-209 -487h-125z" />
<glyph unicode="y" horiz-adv-x="1056" d="M72 999l110 31l215 -751q55 -186 195 -207l307 958l107 -35l-416 -1302q-73 -228 -352 -228l-15 101q205 0 260 164l78 243q-203 23 -274 275z" />
<glyph unicode="z" horiz-adv-x="940" d="M61 27l605 886h-527v107h719v-27l-559 -815l164 -57q119 -41 242 -41q84 0 184 72l51 -91q-120 -88 -235 -88q-131 0 -267 45l-202 66l-86 -125z" />
<glyph unicode="{" horiz-adv-x="714" d="M61 535v112q6 0 18.5 2t41.5 10.5t51.5 20.5t40.5 36.5t18 55.5q0 35 -20.5 207t-20.5 260q0 47 10.5 86t33 66.5t43 46t60.5 34t64.5 23.5t72.5 21.5t69 19.5l28 -94q-143 -39 -199.5 -76t-56.5 -123q0 -45 20.5 -221t20.5 -250q0 -133 -135 -182q18 -6 36.5 -16.5 t43.5 -31t40 -55t15 -77.5q0 -74 -20.5 -250t-20.5 -221q0 -86 56.5 -123t199.5 -76l-28 -94q-20 6 -68.5 19t-73 21.5t-64.5 24t-60.5 33.5t-43 46t-33 67t-10.5 86q0 88 20.5 260t20.5 207q0 49 -42 79.5t-85 37.5z" />
<glyph unicode="|" horiz-adv-x="800" d="M338 -143v1679h125v-1679h-125z" />
<glyph unicode="}" horiz-adv-x="714" d="M143 -260q143 39 199.5 76t56.5 123q0 45 -20.5 221t-20.5 250q0 78 44 121.5t92 58.5q-27 8 -52.5 23.5t-54.5 58.5t-29 100q0 74 20.5 250t20.5 221q0 86 -56 123t-200 76l29 94q20 -6 68.5 -19.5t73 -21.5t64.5 -23.5t60.5 -34t43 -46t32.5 -66.5t10 -86 q0 -88 -20.5 -260t-20.5 -207q0 -49 43 -81t85 -38l42 -6v-112q-6 0 -18 -2.5t-41 -10.5t-51.5 -20.5t-41 -37t-18.5 -54.5q0 -35 20.5 -207t20.5 -260q0 -47 -10 -86t-32.5 -67t-43 -46t-60.5 -33.5t-64.5 -24t-73 -21.5t-68.5 -19z" />
<glyph unicode="~" d="M113 553q53 150 245 149q61 0 178 -35.5t169 -35.5q113 0 147 74l100 -43q-53 -150 -245 -150q-59 0 -178 36t-169 36q-112 0 -147 -74z" />
<glyph unicode="&#xa1;" horiz-adv-x="552" d="M61 926q0 47 34 80.5t83 33.5q47 0 81 -33.5t34 -80.5t-34 -82t-81 -35q-49 0 -83 35t-34 82zM70 -383q123 733 123 911q0 27 -5.5 54.5t-10.5 42.5l-5 14l115 25q20 -61 20 -136q0 -80 -29.5 -307t-59.5 -416l-30 -188h-118z" />
<glyph unicode="&#xa2;" horiz-adv-x="1044" d="M154 686q0 92 15 173t52 163t112 134t179 63v317h125v-317q162 -10 213 -15v-106l-213 14v-844q131 16 252 97l53 -86q-129 -100 -305 -117v-305h-125v309q-168 27 -263 162t-95 358zM270 692q0 -176 62.5 -281.5t179.5 -134.5v836q-242 -21 -242 -420z" />
<glyph unicode="&#xa3;" horiz-adv-x="1015" d="M72 621v116h168v256q0 170 100 267.5t309 97.5q49 0 234 -17v-106q-213 16 -248 16q-131 0 -200.5 -67.5t-69.5 -190.5v-256h315v-116h-315v-367q0 -27 -5 -72l148 -51q119 -41 242 -41q84 0 184 72l51 -101q-121 -88 -235 -88q-131 0 -267 45l-151 50 q-10 -27 -23.5 -50.5t-20.5 -33.5l-7 -11l-105 43q64 91 64 238v367h-168z" />
<glyph unicode="&#xa4;" horiz-adv-x="1409" d="M123 70l209 209q-96 121 -96 309q0 186 98 309l-211 213l88 90l217 -217q129 84 274 84q150 0 279 -84l217 217l88 -90l-211 -213q94 -119 94 -307q0 -186 -96 -307l213 -213l-88 -90l-219 219q-133 -86 -277 -86q-150 0 -276 82l-215 -215zM365 590q0 -166 93 -267.5 t246.5 -101.5t246.5 103.5t93 269.5t-92 264t-247.5 98t-247.5 -100t-92 -266z" />
<glyph unicode="&#xa5;" horiz-adv-x="1099" d="M72 1331l121 31l198 -551q72 -197 248 -199l272 748l117 -35l-295 -809q-45 -12 -110 -12v-74h225v-98h-225v-90h225v-99h-225v-143h-111v143h-221v99h221v90h-221v98h221v88q-86 29 -147.5 100.5t-94.5 161.5z" />
<glyph unicode="&#xa6;" horiz-adv-x="800" d="M338 -143v757h125v-757h-125zM338 778v758h125v-758h-125z" />
<glyph unicode="&#xa7;" horiz-adv-x="849" d="M133 666q0 80 27.5 137t51.5 75.5t46 26.5q-63 78 -63 176q0 233 415 297l27 -108q-172 -35 -240.5 -74t-68.5 -115q0 -57 40 -104t97 -85t114.5 -78t97.5 -101.5t40 -137.5q0 -80 -29 -137t-52.5 -75.5t-45.5 -26.5q66 -80 65 -176q0 -233 -415 -297l-27 108 q172 35 240.5 74t68.5 115q0 57 -40 104t-97 85t-114.5 78t-97.5 101.5t-40 137.5zM260 666q0 -39 25.5 -76t51 -57.5t84 -59.5t81.5 -55q88 44 88 157q0 39 -25.5 75t-51.5 56.5t-84 60.5t-81 56q-88 -49 -88 -157z" />
<glyph unicode="&#xa8;" d="M215 1356q0 39 26.5 65.5t63.5 26.5q39 0 65.5 -26.5t26.5 -65.5q0 -37 -26.5 -63.5t-65.5 -26.5q-37 0 -63.5 26.5t-26.5 63.5zM668 1356q0 39 26.5 65.5t63.5 26.5q39 0 65.5 -26.5t26.5 -65.5q0 -37 -26.5 -63.5t-65.5 -26.5q-37 0 -63.5 26.5t-26.5 63.5z" />
<glyph unicode="&#xa9;" horiz-adv-x="1568" d="M164 497.5q0 272.5 174 449.5t448 177q272 0 445.5 -176t173.5 -444q0 -272 -173.5 -449.5t-445.5 -177.5q-276 0 -449 174t-173 446.5zM274 504q0 -238 142.5 -384.5t369.5 -146.5q223 0 365.5 149.5t142.5 385.5q0 233 -141.5 375.5t-366.5 142.5q-227 0 -369.5 -145.5 t-142.5 -376.5zM541 504q0 129 56 226t194 97q63 0 170 -8v-96q-96 10 -170 10q-144 0 -144 -225q0 -111 46 -170t130 -59q63 0 152 59l45 -78q-106 -76 -209 -76q-125 0 -197.5 84t-72.5 236z" />
<glyph unicode="&#xaa;" horiz-adv-x="630" d="M82 1016q0 86 70.5 126t173.5 40h80v49q0 53 -29 82.5t-80 29.5q-59 0 -145 -49l-46 72q106 63 191 64q201 0 201 -189v-213q0 -76 51 -133l-51 -53q-63 47 -74 121q-39 -119 -172 -119q-76 0 -123 45t-47 127zM176 1016q0 -39 27.5 -64.5t68.5 -25.5q47 0 84 53t47 127 h-77q-150 0 -150 -90z" />
<glyph unicode="&#xab;" horiz-adv-x="1259" d="M122.5 514q0.5 43 65.5 98l422 377l76 -84l-442 -391l442 -391l-76 -84l-422 377q-66 55 -65.5 98zM552.5 514q0.5 43 65.5 98l422 377l76 -84l-442 -391l442 -391l-76 -84l-422 377q-66 55 -65.5 98z" />
<glyph unicode="&#xac;" horiz-adv-x="901" d="M82 541v118h737v-358h-127v240h-610z" />
<glyph unicode="&#xad;" horiz-adv-x="802" d="M102 565v119h598v-119h-598z" />
<glyph unicode="&#xae;" horiz-adv-x="1568" d="M164 860.5q0 272.5 174 449.5t448 177q272 0 445.5 -176t173.5 -445q0 -272 -173.5 -449t-445.5 -177q-276 0 -449 174t-173 446.5zM274 866q0 -238 142.5 -384t369.5 -146q223 0 365.5 149.5t142.5 384.5q0 233 -141.5 376t-366.5 143q-227 0 -369.5 -145.5 t-142.5 -377.5zM479 1194l60 59q49 -49 120 -49q12 0 63 5t71 5q106 0 172.5 -60t66.5 -155q0 -61 -35.5 -109t-85.5 -67q53 -20 84 -90l78 -188l-96 -41l-66 174q-45 119 -172 119h-45v-305h-98v624q-70 18 -117 78zM694 879h119q51 0 86 32.5t35 88t-39 88t-104 32.5 l-97 -10v-231z" />
<glyph unicode="&#xaf;" d="M199 1284v117h667v-117h-667z" />
<glyph unicode="&#xb0;" horiz-adv-x="747" d="M102 1083.5q0 120.5 75 198.5t196 78t196.5 -76t75.5 -196.5t-74.5 -198.5t-195.5 -78q-123 0 -198 76t-75 196.5zM213 1085.5q0 -77.5 44 -126t115.5 -48.5t117 48.5t45.5 126t-44.5 126t-116 48.5t-116.5 -48.5t-45 -126z" />
<glyph unicode="&#xb1;" horiz-adv-x="966" d="M102 0v106h762v-106h-762zM102 549v104h324v328h115v-328h323v-104h-323v-330h-115v330h-324z" />
<glyph unicode="&#xb2;" horiz-adv-x="573" d="M82 848v10q0 63 28.5 117.5t58.5 82t83 66.5q117 82 117 142q0 82 -86 82q-37 0 -172 -7v86q94 8 165 9q182 0 183 -172q0 -68 -40 -115t-116 -100q-84 -57 -110 -113h299v-88h-410z" />
<glyph unicode="&#xb3;" horiz-adv-x="548" d="M82 856v88q96 -12 158 -12q123 0 122 96q0 49 -49 98q-45 -14 -110 -14h-37v90h41q131 0 131 74t-88 74q-29 0 -107 -4q-8 0 -29.5 -1.5t-25.5 -1.5v87q78 6 158 6q180 0 180 -162q0 -61 -33 -100q63 -68 64 -150q0 -90 -57.5 -135t-157.5 -45z" />
<glyph unicode="&#xb4;" d="M334 1231l323 256l74 -101l-352 -225z" />
<glyph unicode="&#xb5;" horiz-adv-x="1132" d="M174 -512v1532h113v-688h2q0 -127 52 -186.5t169 -59.5q102 0 175 51t153 160v723h112v-725q0 -158 80 -244l-69 -67q-88 63 -113 194q-129 -199 -338 -198q-141 0 -223 57v-549h-113z" />
<glyph unicode="&#xb6;" horiz-adv-x="919" d="M41 883q0 205 124 293t394 88q25 0 258 -7v-1411h-119v1295h-168v-1295h-120v666q-188 23 -278.5 112t-90.5 259z" />
<glyph unicode="&#xb7;" horiz-adv-x="600" d="M184 659.5q0 47.5 34 82t81 34.5q49 0 83 -34.5t34 -82t-34 -81t-83 -33.5q-47 0 -81 33.5t-34 81z" />
<glyph unicode="&#xb8;" horiz-adv-x="1705" d="M506 0h108v-135q53 -6 88 -39t35 -84q0 -164 -145 -268l-70 67q8 8 29.5 32t30 34t20.5 29.5t17.5 38t5.5 40.5q0 25 -15.5 40.5t-27 19.5t-43 9t-33.5 5v211z" />
<glyph unicode="&#xb9;" horiz-adv-x="501" d="M82 1292l18 80q27 -6 43 -6q88 0 203 76l12 -8v-586h-98v457q-57 -27 -106 -27q-39 0 -72 14z" />
<glyph unicode="&#xba;" horiz-adv-x="714" d="M72 1135q0 131 78.5 214t205.5 83q129 0 208 -82t79 -211q0 -131 -79 -215t-208 -84q-127 0 -205.5 83t-78.5 212zM172 1139q0 -92 51 -149.5t133 -57.5q86 0 137.5 58.5t51.5 150.5q0 90 -51.5 144t-137.5 54q-84 0 -134 -54t-50 -146z" />
<glyph unicode="&#xbb;" horiz-adv-x="1259" d="M143 123l443 391l-443 391l76 84l422 -377q66 -55 66 -98t-66 -98l-422 -377zM573 123l443 391l-443 391l76 84l422 -377q66 -55 66 -98t-66 -98l-422 -377z" />
<glyph unicode="&#xbc;" horiz-adv-x="1423" d="M184 1208l19 80q27 -6 43 -6q90 0 203 76l12 -8v-586h-99v457q-57 -27 -106 -27q-39 0 -72 14zM451 0l448 1337h119l-447 -1337h-120zM985 193l53 380h92l-40 -290h198v290h94v-573h-94v193h-303z" />
<glyph unicode="&#xbd;" horiz-adv-x="1398" d="M184 1208l19 80q27 -6 43 -6q82 0 174 57l29 19l12 -8v-586h-99v457q-57 -27 -106 -27q-39 0 -72 14zM451 0l448 1337h119l-447 -1337h-120zM948 0v10q0 63 29 117.5t58.5 82.5t82.5 66q117 82 117 142q0 82 -86 82q-37 0 -172 -6v86q94 8 166 8q182 0 182 -172 q0 -68 -40 -115t-116 -100q-84 -57 -110 -113h299v-88h-410z" />
<glyph unicode="&#xbe;" horiz-adv-x="1462" d="M205 768v88q96 -12 157 -12q123 0 123 96q0 49 -49 98q-45 -14 -110 -14h-37v90h41q131 0 131 74t-88 74q-29 0 -107 -5q-8 0 -29.5 -1t-25.5 -1v86q78 6 158 7q180 0 180 -162q0 -61 -33 -101q63 -68 64 -149q0 -90 -57.5 -135t-157.5 -45zM489 0l449 1337h119 l-447 -1337h-121zM1024 193l53 380h92l-41 -290h199v290h94v-573h-94v193h-303z" />
<glyph unicode="&#xbf;" horiz-adv-x="880" d="M20 -35q0 82 33 147.5t81 104.5t105.5 78t105.5 67.5t81 71.5t33 94q0 27 -5 54.5t-11 42.5l-5 14l121 25q20 -61 21 -136q0 -88 -45.5 -152.5t-111 -104.5t-131 -78.5t-110.5 -97t-45 -136.5q0 -123 69.5 -190.5t201.5 -67.5q158 0 370 16v-106q-184 -16 -356 -17 q-209 0 -305.5 99.5t-96.5 271.5zM319 926q0 47 34 80.5t83 33.5q47 0 81 -33.5t34 -80.5t-34 -82t-81 -35q-49 0 -83 35t-34 82z" />
<glyph unicode="&#xc0;" horiz-adv-x="1300" d="M20 0l609 1440h39l612 -1440h-131l-199 465h-604l-194 -465h-132zM254 1573l37 119l397 -129l-24 -82zM395 582h506l-203 477q-29 66 -51 160q-20 -92 -49 -160z" />
<glyph unicode="&#xc1;" horiz-adv-x="1300" d="M20 0l609 1440h39l612 -1440h-131l-199 465h-604l-194 -465h-132zM395 582h506l-203 477q-29 66 -51 160q-20 -92 -49 -160zM606 1563l398 129l36 -119l-409 -92z" />
<glyph unicode="&#xc2;" horiz-adv-x="1300" d="M20 0l609 1440h39l612 -1440h-131l-199 465h-604l-194 -465h-132zM328 1546l223 211q70 66 98.5 66t98.5 -66l223 -209l-76 -75l-246 229l-246 -232zM395 582h506l-203 477q-29 66 -51 160q-20 -92 -49 -160z" />
<glyph unicode="&#xc3;" horiz-adv-x="1300" d="M20 0l609 1440h39l612 -1440h-131l-199 465h-604l-194 -465h-132zM236 1612q53 150 245 149q61 0 178 -35.5t168 -35.5q113 0 148 73l100 -43q-53 -150 -246 -149q-59 0 -178 35.5t-168 35.5q-112 1 -147 -73zM395 582h506l-203 477q-29 66 -51 160q-20 -92 -49 -160z " />
<glyph unicode="&#xc4;" horiz-adv-x="1300" d="M20 0l609 1440h39l612 -1440h-131l-199 465h-604l-194 -465h-132zM328 1665q0 39 26.5 65.5t63.5 26.5q39 0 65.5 -26.5t26.5 -65.5q0 -37 -26.5 -63.5t-65.5 -26.5q-37 0 -63.5 26.5t-26.5 63.5zM395 582h506l-203 477q-29 66 -51 160q-20 -92 -49 -160zM780 1665 q0 39 27 65.5t63 26.5q39 0 66 -26.5t27 -65.5q0 -37 -27 -63.5t-66 -26.5q-37 0 -63.5 26.5t-26.5 63.5z" />
<glyph unicode="&#xc5;" horiz-adv-x="1300" d="M20 0l574 1358q-70 14 -111 69.5t-41 133.5q0 94 56.5 153.5t150.5 59.5q92 0 149.5 -58.5t57.5 -150.5q0 -78 -42 -135.5t-112 -71.5l578 -1358h-131l-199 465h-604l-194 -465h-132zM395 582h506l-203 477q-29 66 -51 160q-20 -92 -49 -160zM543 1563q0 -53 24.5 -87 t69.5 -36h20q45 2 72 35.5t27 87.5q0 55 -28 87.5t-77 32.5t-78.5 -32.5t-29.5 -87.5z" />
<glyph unicode="&#xc6;" horiz-adv-x="1802" d="M0 0l735 1401h965v-117h-793v-485h649v-117h-649v-565h834v-117h-959v465h-393l-239 -465h-150zM449 582h333v694q-22 -91 -71 -189z" />
<glyph unicode="&#xc7;" horiz-adv-x="1318" d="M123 700q0 309 187.5 515t484.5 206q215 0 328.5 -76.5t113.5 -207.5q0 -121 -108.5 -193t-333.5 -72h-529q-18 -80 -18 -172h-125zM123 700h125q0 -276 119.5 -442t345.5 -166q115 0 243.5 51.5t217.5 108.5l53 -92q-78 -61 -207 -116.5t-270 -61.5v-117q53 -6 87.5 -39 t34.5 -84q0 -164 -145 -268l-70 67q8 8 30 32t30 34t20.5 29.5t17.5 38t5 40.5q0 25 -15.5 40.5t-26.5 19.5t-43 9t-34 5v195q-256 25 -387 220t-131 496zM299 979h496q174 0 243.5 39t69.5 119q0 172 -313 172q-170 0 -300 -88t-196 -242z" />
<glyph unicode="&#xc8;" horiz-adv-x="1214" d="M195 0v1401h917v-117h-793v-485h650v-117h-650v-565h834v-117h-958zM279 1571l36 119l398 -129l-25 -82z" />
<glyph unicode="&#xc9;" horiz-adv-x="1214" d="M195 0v1401h917v-117h-793v-485h650v-117h-650v-565h834v-117h-958zM631 1561l397 129l37 -119l-410 -92z" />
<glyph unicode="&#xca;" horiz-adv-x="1214" d="M195 0v1401h917v-117h-793v-485h650v-117h-650v-565h834v-117h-958zM352 1544l223 211q70 66 98.5 66t98.5 -66l223 -209l-75 -76l-246 230l-246 -232z" />
<glyph unicode="&#xcb;" horiz-adv-x="1214" d="M195 0v1401h917v-117h-793v-485h650v-117h-650v-565h834v-117h-958zM352 1663q0 39 27 65.5t63 26.5q39 0 66 -26.5t27 -65.5q0 -37 -27 -63.5t-66 -26.5q-37 0 -63.5 26.5t-26.5 63.5zM805 1663q0 39 26.5 65.5t63.5 26.5q39 0 65.5 -26.5t26.5 -65.5q0 -37 -26.5 -63.5 t-65.5 -26.5q-37 0 -63.5 26.5t-26.5 63.5z" />
<glyph unicode="&#xcc;" horiz-adv-x="514" d="M-139 1573l37 119l397 -129l-25 -82zM195 0v1401h124v-1401h-124z" />
<glyph unicode="&#xcd;" horiz-adv-x="514" d="M195 0v1401h124v-1401h-124zM213 1563l397 129l37 -119l-409 -92z" />
<glyph unicode="&#xce;" horiz-adv-x="514" d="M-66 1546l224 211q70 66 98.5 66t97.5 -66l224 -209l-76 -75l-246 229l-246 -232zM195 0v1401h124v-1401h-124z" />
<glyph unicode="&#xcf;" horiz-adv-x="514" d="M-66 1665q0 39 27 65.5t64 26.5q39 0 65.5 -26.5t26.5 -65.5q0 -37 -27 -63.5t-65 -26.5q-37 0 -64 26.5t-27 63.5zM195 0v1401h124v-1401h-124zM387 1665q0 39 26.5 65.5t63.5 26.5q39 0 65.5 -26.5t26.5 -65.5q0 -37 -26.5 -63.5t-65.5 -26.5q-37 0 -63.5 26.5 t-26.5 63.5z" />
<glyph unicode="&#xd0;" horiz-adv-x="1595" d="M20 797v116h234v379q-152 23 -223 121l67 70q88 -82 244 -82q57 0 192.5 10t227.5 10q322 0 516.5 -204.5t194.5 -516.5q0 -313 -195 -516.5t-516 -203.5q-186 0 -313 5t-161 10l-34 5v797h-234zM379 102q139 -10 383 -10q268 0 428 168t160 440.5t-160 440.5t-428 168 q-82 0 -210 -10.5t-173 -10.5v-375h250v-116h-250v-695z" />
<glyph unicode="&#xd1;" horiz-adv-x="1564" d="M195 0v1421h38l945 -1126q37 -47 69 -76q-8 72 -8 168v1016h125v-1272q60 -33 109 -43l-31 -92q-90 18 -170 64t-123 88t-96 104l-586 680q-63 72 -162 217q14 -162 14 -217v-932h-124zM365 1612q53 150 245 149q61 0 178 -35.5t168 -35.5q113 0 148 73l100 -43 q-53 -150 -246 -149q-59 0 -177.5 35.5t-168.5 35.5q-112 1 -147 -73z" />
<glyph unicode="&#xd2;" horiz-adv-x="1628" d="M123 700.5q0 311.5 191.5 516t500.5 204.5q92 0 237.5 -10t202.5 -10q156 0 244 82l68 -70q-82 -113 -264 -125q203 -262 202 -588q0 -311 -191.5 -515.5t-498.5 -204.5q-309 0 -500.5 204.5t-191.5 516zM248 700.5q0 -270.5 156.5 -439.5t410.5 -169t410.5 169 t156.5 439q0 119 -28.5 227.5t-74.5 183.5t-74.5 113t-57.5 66q-301 18 -334 19q-252 0 -408.5 -169t-156.5 -439.5zM428 1571l37 119l397 -129l-24 -82z" />
<glyph unicode="&#xd3;" horiz-adv-x="1628" d="M123 700.5q0 311.5 191.5 516t500.5 204.5q92 0 237.5 -10t202.5 -10q156 0 244 82l68 -70q-82 -113 -264 -125q203 -262 202 -588q0 -311 -191.5 -515.5t-498.5 -204.5q-309 0 -500.5 204.5t-191.5 516zM248 700.5q0 -270.5 156.5 -439.5t410.5 -169t410.5 169 t156.5 439q0 119 -28.5 227.5t-74.5 183.5t-74.5 113t-57.5 66q-301 18 -334 19q-252 0 -408.5 -169t-156.5 -439.5zM780 1561l398 129l36 -119l-409 -92z" />
<glyph unicode="&#xd4;" horiz-adv-x="1628" d="M123 700.5q0 311.5 191.5 516t500.5 204.5q92 0 237.5 -10t202.5 -10q156 0 244 82l68 -70q-82 -113 -264 -125q203 -262 202 -588q0 -311 -191.5 -515.5t-498.5 -204.5q-309 0 -500.5 204.5t-191.5 516zM248 700.5q0 -270.5 156.5 -439.5t410.5 -169t410.5 169 t156.5 439q0 119 -28.5 227.5t-74.5 183.5t-74.5 113t-57.5 66q-301 18 -334 19q-252 0 -408.5 -169t-156.5 -439.5zM502 1544l223 211q70 66 98.5 66t98.5 -66l223 -209l-76 -76l-246 230l-245 -232z" />
<glyph unicode="&#xd5;" horiz-adv-x="1628" d="M123 700.5q0 311.5 191.5 516t500.5 204.5q92 0 237.5 -10t202.5 -10q156 0 244 82l68 -70q-82 -113 -264 -125q203 -262 202 -588q0 -311 -191.5 -515.5t-498.5 -204.5q-309 0 -500.5 204.5t-191.5 516zM248 700.5q0 -270.5 156.5 -439.5t410.5 -169t410.5 169 t156.5 439q0 119 -28.5 227.5t-74.5 183.5t-74.5 113t-57.5 66q-301 18 -334 19q-252 0 -408.5 -169t-156.5 -439.5zM410 1610q53 150 245 149q61 0 178 -35.5t168 -35.5q113 0 148 73l100 -43q-53 -150 -245 -149q-59 0 -178 35.5t-169 35.5q-112 1 -147 -73z" />
<glyph unicode="&#xd6;" horiz-adv-x="1628" d="M123 700.5q0 311.5 191.5 516t500.5 204.5q92 0 237.5 -10t202.5 -10q156 0 244 82l68 -70q-82 -113 -264 -125q203 -262 202 -588q0 -311 -191.5 -515.5t-498.5 -204.5q-309 0 -500.5 204.5t-191.5 516zM248 700.5q0 -270.5 156.5 -439.5t410.5 -169t410.5 169 t156.5 439q0 119 -28.5 227.5t-74.5 183.5t-74.5 113t-57.5 66q-301 18 -334 19q-252 0 -408.5 -169t-156.5 -439.5zM502 1663q0 39 26.5 65.5t63.5 26.5q39 0 65.5 -26.5t26.5 -65.5q0 -37 -26.5 -63.5t-65.5 -26.5q-37 0 -63.5 26.5t-26.5 63.5zM954 1663q0 39 27 65.5 t63 26.5q39 0 66 -26.5t27 -65.5q0 -37 -27 -63.5t-66 -26.5q-37 0 -63.5 26.5t-26.5 63.5z" />
<glyph unicode="&#xd7;" horiz-adv-x="1028" d="M123 238l305 305l-291 293l88 88l291 -293l291 293l84 -84l-291 -291l305 -305l-88 -88l-305 305l-305 -307z" />
<glyph unicode="&#xd8;" horiz-adv-x="1628" d="M123 700q0 311 191.5 516t500.5 205q92 0 237.5 -10t202.5 -10q156 0 244 82l68 -70q-82 -113 -264 -125q203 -262 202 -588q0 -311 -191.5 -515.5t-498.5 -204.5q-193 0 -348 86l-61 -109l-101 61l74 107q-123 96 -189.5 246.5t-66.5 328.5zM248 700q0 -305 192 -475 l690 1067q-256 16 -317 17q-252 0 -408.5 -169.5t-156.5 -439.5zM537 160q125 -68 278 -68q254 0 410.5 169t156.5 439q0 283 -165 510z" />
<glyph unicode="&#xd9;" horiz-adv-x="1464" d="M184 547v854h125v-854q0 -211 116 -333t306 -122q193 0 308.5 122t115.5 333v854h125v-854q0 -252 -150.5 -409.5t-396.5 -157.5q-248 0 -398.5 156.5t-150.5 410.5zM338 1573l37 119l397 -129l-24 -82z" />
<glyph unicode="&#xda;" horiz-adv-x="1464" d="M184 547v854h125v-854q0 -211 116 -333t306 -122q193 0 308.5 122t115.5 333v854h125v-854q0 -252 -150.5 -409.5t-396.5 -157.5q-248 0 -398.5 156.5t-150.5 410.5zM690 1563l397 129l37 -119l-409 -92z" />
<glyph unicode="&#xdb;" horiz-adv-x="1464" d="M184 547v854h125v-854q0 -211 116 -333t306 -122q193 0 308.5 122t115.5 333v854h125v-854q0 -252 -150.5 -409.5t-396.5 -157.5q-248 0 -398.5 156.5t-150.5 410.5zM412 1546l223 211q70 66 98.5 66t97.5 -66l224 -209l-76 -75l-246 229l-246 -232z" />
<glyph unicode="&#xdc;" horiz-adv-x="1464" d="M184 547v854h125v-854q0 -211 116 -333t306 -122q193 0 308.5 122t115.5 333v854h125v-854q0 -252 -150.5 -409.5t-396.5 -157.5q-248 0 -398.5 156.5t-150.5 410.5zM412 1665q0 39 26.5 65.5t63.5 26.5q39 0 65.5 -26.5t26.5 -65.5q0 -37 -26.5 -63.5t-65.5 -26.5 q-37 0 -63.5 26.5t-26.5 63.5zM864 1665q0 39 27 65.5t63 26.5q39 0 66 -26.5t27 -65.5q0 -37 -27 -63.5t-66 -26.5q-37 0 -63.5 26.5t-26.5 63.5z" />
<glyph unicode="&#xdd;" horiz-adv-x="1089" d="M72 1393l121 30l198 -592q61 -197 246 -198l274 788l117 -35l-295 -849q-57 -12 -104 -13v-524h-125v541q-168 57 -234 260zM526 1563l398 129l37 -119l-410 -92z" />
<glyph unicode="&#xde;" horiz-adv-x="1081" d="M195 0v1401h124v-260q159 14 265 14q190 0 308 -126t118 -318.5t-118 -319.5t-308 -127q-47 0 -146.5 1t-118.5 1v-266h-124zM319 379q18 0 117 -1t142 -1q139 0 225 92t86 242q0 147 -86 239t-225 92q-100 0 -259 -14v-649z" />
<glyph unicode="&#xdf;" horiz-adv-x="1048" d="M174 -512v1524q0 492 322 491q147 0 223 -72.5t76 -197.5q0 -55 -20.5 -99t-49.5 -72t-58.5 -51.5t-50 -52t-20.5 -63.5q0 -72 39 -120t95 -80.5t112.5 -71.5t95.5 -116t39 -190q0 -152 -108.5 -244.5t-286.5 -92.5q-125 0 -295 16v-508h-113zM287 102q123 -16 311 -16 q123 0 191.5 62.5t68.5 168.5q0 86 -40 144.5t-97 92.5t-113.5 71t-96.5 103.5t-40 166.5q0 66 33 116t70.5 75.5t70.5 63.5t33 83q0 76 -47 120t-135 44q-209 0 -209 -379v-916z" />
<glyph unicode="&#xe0;" horiz-adv-x="1028" d="M102 272q0 158 125 229.5t308 71.5h198v115q0 127 -51 186.5t-162 59.5q-154 0 -303 -111l-55 86q63 55 160.5 93t197.5 38q326 0 326 -329v-416q0 -158 80 -244l-70 -67q-76 57 -106 163q-84 -167 -320 -167q-145 0 -236.5 76.5t-91.5 215.5zM182 1386l74 101l324 -256 l-45 -70zM219 272q0 -186 211 -186q127 0 213 69.5t90 192.5v121h-198q-315 0 -316 -197z" />
<glyph unicode="&#xe1;" horiz-adv-x="1028" d="M102 272q0 158 125 229.5t308 71.5h198v115q0 127 -51 186.5t-162 59.5q-154 0 -303 -111l-55 86q63 55 160.5 93t197.5 38q326 0 326 -329v-416q0 -158 80 -244l-70 -67q-76 57 -106 163q-84 -167 -320 -167q-145 0 -236.5 76.5t-91.5 215.5zM219 272q0 -186 211 -186 q129 0 216 73.5t87 202.5v107h-198q-315 0 -316 -197zM463 1231l323 256l74 -101l-352 -225z" />
<glyph unicode="&#xe2;" horiz-adv-x="1028" d="M102 272q0 158 125 229.5t308 71.5h198v115q0 127 -51 186.5t-162 59.5q-154 0 -303 -111l-55 86q63 55 160.5 93t197.5 38q326 0 326 -329v-416q0 -158 80 -244l-70 -67q-76 57 -106 163q-84 -167 -320 -167q-145 0 -236.5 76.5t-91.5 215.5zM199 1255l223 252 q55 66 98 66t98 -66l224 -250l-76 -67l-246 272l-246 -274zM219 272q0 -186 211 -186q129 0 216 73.5t87 202.5v107h-198q-315 0 -316 -197z" />
<glyph unicode="&#xe3;" horiz-adv-x="1028" d="M102 272q0 158 125 229.5t308 71.5h198v115q0 127 -51 186.5t-162 59.5q-154 0 -303 -111l-55 86q63 55 160.5 93t197.5 38q326 0 326 -329v-416q0 -158 80 -244l-70 -67q-76 57 -106 163q-84 -167 -320 -167q-145 0 -236.5 76.5t-91.5 215.5zM115 1284q53 150 245 150 q61 0 157.5 -36t148.5 -36q113 0 147 74l100 -37q-53 -150 -245 -150q-59 0 -157.5 36t-148.5 36q-112 0 -147 -74zM219 272q0 -186 211 -186q127 0 213 69.5t90 192.5v121h-198q-315 0 -316 -197z" />
<glyph unicode="&#xe4;" horiz-adv-x="1028" d="M102 272q0 158 125 229.5t308 71.5h198v115q0 127 -51 186.5t-162 59.5q-154 0 -303 -111l-55 86q63 55 160.5 93t197.5 38q326 0 326 -329v-416q0 -158 80 -244l-70 -67q-76 57 -106 163q-84 -167 -320 -167q-145 0 -236.5 76.5t-91.5 215.5zM201 1356q0 39 26.5 65.5 t63.5 26.5q39 0 65.5 -26.5t26.5 -65.5q0 -37 -26.5 -63.5t-65.5 -26.5q-37 0 -63.5 26.5t-26.5 63.5zM219 272q0 -186 211 -186q129 0 216 73.5t87 202.5v107h-198q-315 0 -316 -197zM653 1356q0 39 27 65.5t63 26.5q39 0 66 -26.5t27 -65.5q0 -37 -27 -63.5t-66 -26.5 q-37 0 -63.5 26.5t-26.5 63.5z" />
<glyph unicode="&#xe5;" horiz-adv-x="1028" d="M102 272q0 158 125 229.5t308 71.5h198v115q0 127 -51 186.5t-162 59.5q-154 0 -303 -111l-55 86q63 55 160.5 93t197.5 38q326 0 326 -329v-416q0 -158 80 -244l-70 -67q-76 57 -106 163q-84 -167 -320 -167q-145 0 -236.5 76.5t-91.5 215.5zM219 272q0 -186 211 -186 q129 0 216 73.5t87 202.5v107h-198q-315 0 -316 -197zM311 1329q0 94 56.5 153.5t150.5 59.5q92 0 149.5 -58.5t57.5 -150.5q0 -94 -57.5 -153.5t-149.5 -59.5q-94 0 -150.5 58.5t-56.5 150.5zM412 1331q0 -57 27.5 -90t76.5 -33q51 0 80 34t29 89t-28 88t-77 33t-78.5 -33 t-29.5 -88z" />
<glyph unicode="&#xe6;" horiz-adv-x="1671" d="M102 272q0 158 125 229.5t308 71.5h198v115q0 127 -51 186.5t-162 59.5q-154 0 -303 -111l-55 86q63 55 160.5 93t197.5 38q248 0 303 -221q55 102 144.5 161.5t206.5 59.5q158 0 264 -85t106 -226q0 -168 -129 -243.5t-321 -75.5h-242q37 -324 344 -324q137 0 320 98 l53 -86q-174 -119 -373 -118q-309 0 -405 253q-20 -113 -117 -183t-244 -70q-145 0 -236.5 76.5t-91.5 215.5zM219 272q0 -186 211 -186q129 0 216 73.5t87 202.5v107h-198q-315 0 -316 -197zM846 516h248q334 0 333 213q0 94 -70 152.5t-183 58.5q-143 0 -234.5 -128 t-93.5 -296z" />
<glyph unicode="&#xe7;" horiz-adv-x="890" d="M123 506q0 96 17.5 181t58.5 169t124 134t201 50q90 0 275 -16v-106q-213 16 -289 16q-270 0 -270 -422q0 -205 85 -315.5t240 -110.5q119 0 273 98l53 -86q-139 -106 -295 -116v-117q53 -6 88 -39t35 -84q0 -164 -146 -268l-69 67q8 8 29.5 32t29.5 34t20.5 29.5 t17.5 38t5 40.5q0 25 -15.5 40.5t-26.5 19.5t-43 9t-34 5v197q-172 23 -268 159t-96 361z" />
<glyph unicode="&#xe8;" d="M123 506q0 219 125 376.5t319 157.5q158 0 264.5 -85t106.5 -226q0 -168 -129 -243.5t-322 -75.5h-241q37 -324 344 -324q137 0 319 98l54 -86q-174 -119 -373 -118q-229 0 -348 136t-119 390zM229 1386l74 101l324 -256l-45 -70zM240 516h247q334 0 334 213 q0 94 -70.5 152.5t-183.5 58.5q-143 0 -234 -128t-93 -296z" />
<glyph unicode="&#xe9;" d="M123 506q0 219 125 376.5t319 157.5q158 0 264.5 -85t106.5 -226q0 -168 -129 -243.5t-322 -75.5h-241q37 -324 344 -324q137 0 319 98l54 -86q-174 -119 -373 -118q-229 0 -348 136t-119 390zM240 516h247q334 0 334 213q0 94 -70.5 152.5t-183.5 58.5q-143 0 -234 -128 t-93 -296zM510 1231l324 256l73 -101l-352 -225z" />
<glyph unicode="&#xea;" d="M123 506q0 219 125 376.5t319 157.5q158 0 264.5 -85t106.5 -226q0 -168 -129 -243.5t-322 -75.5h-241q37 -324 344 -324q137 0 319 98l54 -86q-174 -119 -373 -118q-229 0 -348 136t-119 390zM240 516h247q334 0 334 213q0 94 -70.5 152.5t-183.5 58.5q-143 0 -234 -128 t-93 -296zM246 1255l223 252q55 66 98 66t99 -66l223 -250l-76 -67l-246 272l-245 -274z" />
<glyph unicode="&#xeb;" d="M123 506q0 219 125 376.5t319 157.5q158 0 264.5 -85t106.5 -226q0 -168 -129 -243.5t-322 -75.5h-241q37 -324 344 -324q137 0 319 98l54 -86q-174 -119 -373 -118q-229 0 -348 136t-119 390zM240 516h247q334 0 334 213q0 94 -70.5 152.5t-183.5 58.5q-143 0 -234 -128 t-93 -296zM248 1356q0 39 26.5 65.5t63.5 26.5q39 0 65.5 -26.5t26.5 -65.5q0 -37 -26.5 -63.5t-65.5 -26.5q-37 0 -63.5 26.5t-26.5 63.5zM700 1356q0 39 27 65.5t64 26.5q39 0 65.5 -26.5t26.5 -65.5q0 -37 -27 -63.5t-65 -26.5q-37 0 -64 26.5t-27 63.5z" />
<glyph unicode="&#xec;" horiz-adv-x="481" d="M-33 1432l103 67l184 -303l-68 -49zM113 967l69 67q125 -90 125 -311v-723h-112v723q0 156 -82 244z" />
<glyph unicode="&#xed;" horiz-adv-x="481" d="M109 1196l184 303l102 -67l-219 -285zM113 967l69 67q125 -90 125 -311v-723h-112v723q0 156 -82 244z" />
<glyph unicode="&#xee;" horiz-adv-x="481" d="M-33 1255l183 252q47 66 98 66t98 -66l182 -250l-86 -61l-194 262l-193 -262zM113 967l69 67q125 -90 125 -311v-723h-112v723q0 156 -82 244z" />
<glyph unicode="&#xef;" horiz-adv-x="481" d="M-78 1356q0 39 26.5 65.5t63.5 26.5q39 0 65.5 -26.5t26.5 -65.5q0 -37 -26.5 -63.5t-65.5 -26.5q-37 0 -63.5 26.5t-26.5 63.5zM113 967l69 67q125 -90 125 -311v-723h-112v723q0 156 -82 244zM252 1356q0 39 26.5 65.5t63.5 26.5q39 0 65.5 -26.5t26.5 -65.5 q0 -37 -26.5 -63.5t-65.5 -26.5q-37 0 -63.5 26.5t-26.5 63.5z" />
<glyph unicode="&#xf0;" horiz-adv-x="1202" d="M102 505.5q0 231.5 141.5 383t368.5 151.5q100 0 217 -22l-51 151h-225v113h186l-61 182l119 37l71 -219h232v-113h-193l105 -313q66 -190 65 -360q0 -238 -127 -377t-338 -139q-229 0 -369.5 147t-140.5 378.5zM219 512q0 -193 107.5 -309.5t285.5 -116.5 q166 0 256 110.5t90 284.5q0 164 -63 348l-27 74q-139 31 -256 31q-178 0 -285.5 -116t-107.5 -306z" />
<glyph unicode="&#xf1;" horiz-adv-x="1120" d="M102 967l70 67q88 -63 113 -188q133 195 346 194q344 0 344 -329q0 -104 -8.5 -246.5t-8.5 -202.5q1 -137 50 -262h-109q-53 102 -53 274q0 57 8 184.5t8 229.5q0 246 -231 246q-102 0 -180 -51.5t-154 -155.5v-4v-723h-113v723q0 156 -82 244zM160 1284q53 150 246 150 q61 0 157 -36t148 -36q113 0 147 74l100 -37q-53 -150 -245 -150q-59 0 -157.5 36t-147.5 36q-113 0 -148 -74z" />
<glyph unicode="&#xf2;" horiz-adv-x="1222" d="M102 505.5q0 231.5 141.5 383t369 151.5t367.5 -149.5t140 -378.5q0 -233 -140.5 -382.5t-367.5 -149.5q-229 0 -369.5 147t-140.5 378.5zM219 512q0 -193 107.5 -309.5t285.5 -116.5q176 0 284 120t108 310q0 188 -108 303t-284 115q-178 0 -285.5 -116t-107.5 -306z M274 1386l74 101l324 -256l-45 -70z" />
<glyph unicode="&#xf3;" horiz-adv-x="1222" d="M102 505.5q0 231.5 141.5 383t369 151.5t367.5 -149.5t140 -378.5q0 -233 -140.5 -382.5t-367.5 -149.5q-229 0 -369.5 147t-140.5 378.5zM219 512q0 -193 107.5 -309.5t285.5 -116.5q176 0 284 120t108 310q0 188 -108 303t-284 115q-178 0 -285.5 -116t-107.5 -306z M555 1231l324 256l73 -101l-352 -225z" />
<glyph unicode="&#xf4;" horiz-adv-x="1222" d="M102 505.5q0 231.5 141.5 383t369 151.5t367.5 -149.5t140 -378.5q0 -233 -140.5 -382.5t-367.5 -149.5q-229 0 -369.5 147t-140.5 378.5zM219 512q0 -193 107.5 -309.5t285.5 -116.5q176 0 284 120t108 310q0 188 -108 303t-284 115q-178 0 -285.5 -116t-107.5 -306z M291 1255l223 252q55 66 98 66t99 -66l223 -250l-76 -67l-246 272l-245 -274z" />
<glyph unicode="&#xf5;" horiz-adv-x="1222" d="M102 505.5q0 231.5 141.5 383t369 151.5t367.5 -149.5t140 -378.5q0 -233 -140.5 -382.5t-367.5 -149.5q-229 0 -369.5 147t-140.5 378.5zM211 1284q53 150 246 150q61 0 157.5 -36t147.5 -36q113 0 147 74l101 -37q-53 -150 -246 -150q-59 0 -157.5 36t-147.5 36 q-113 0 -148 -74zM219 512q0 -193 107.5 -309.5t285.5 -116.5q176 0 284 120t108 310q0 188 -108 303t-284 115q-178 0 -285.5 -116t-107.5 -306z" />
<glyph unicode="&#xf6;" horiz-adv-x="1222" d="M102 505.5q0 231.5 141.5 383t369 151.5t367.5 -149.5t140 -378.5q0 -233 -140.5 -382.5t-367.5 -149.5q-229 0 -369.5 147t-140.5 378.5zM219 512q0 -193 107.5 -309.5t285.5 -116.5q176 0 284 120t108 310q0 188 -108 303t-284 115q-178 0 -285.5 -116t-107.5 -306z M293 1356q0 39 26.5 65.5t63.5 26.5q39 0 65.5 -26.5t26.5 -65.5q0 -37 -26.5 -63.5t-65.5 -26.5q-37 0 -63.5 26.5t-26.5 63.5zM745 1356q0 39 27 65.5t64 26.5q39 0 65.5 -26.5t26.5 -65.5q0 -37 -27 -63.5t-65 -26.5q-37 0 -64 26.5t-27 63.5z" />
<glyph unicode="&#xf7;" horiz-adv-x="966" d="M102 549v104h762v-104h-762zM387 293q0 39 27.5 67.5t66.5 28.5t68 -28.5t29 -67.5t-29 -66.5t-68 -27.5t-66.5 27.5t-27.5 66.5zM387 905q0 39 27.5 67.5t66.5 28.5t68 -27.5t29 -68.5q0 -39 -29 -66.5t-68 -27.5t-66.5 27.5t-27.5 66.5z" />
<glyph unicode="&#xf8;" horiz-adv-x="1222" d="M102 506q0 231 141.5 382.5t368.5 151.5q129 0 240 -55l47 78l100 -62l-55 -77q176 -150 176 -412q0 -233 -140.5 -382.5t-367.5 -149.5q-133 0 -243 55l-45 -78l-101 61l53 76q-174 147 -174 412zM219 512q0 -213 113 -326l461 713q-81 35 -181 35q-178 0 -285.5 -116 t-107.5 -306zM430 121q72 -35 182 -35q176 0 284 120t108 310q0 209 -113 318z" />
<glyph unicode="&#xf9;" horiz-adv-x="1097" d="M113 999l98 33q59 -92 59 -287q0 -57 -8 -184t-8 -229q0 -127 52 -186.5t169 -59.5q102 0 175 51t153 160v723h112v-725q0 -158 80 -244l-69 -67q-88 63 -113 194q-129 -199 -338 -198q-334 0 -334 329q0 104 8.5 246.5t8.5 202.5q0 139 -45 241zM205 1386l74 101 l323 -256l-45 -70z" />
<glyph unicode="&#xfa;" horiz-adv-x="1097" d="M113 999l98 33q59 -92 59 -287q0 -57 -8 -184t-8 -229q0 -127 52 -186.5t169 -59.5q102 0 175 51t153 160v723h112v-725q0 -158 80 -244l-69 -67q-88 63 -113 194q-129 -199 -338 -198q-334 0 -334 329q0 104 8.5 246.5t8.5 202.5q0 139 -45 241zM485 1231l324 256 l74 -101l-353 -225z" />
<glyph unicode="&#xfb;" horiz-adv-x="1097" d="M113 999l98 33q59 -92 59 -287q0 -57 -8 -184t-8 -229q0 -127 52 -186.5t169 -59.5q102 0 175 51t153 160v723h112v-725q0 -158 80 -244l-69 -67q-88 63 -113 194q-129 -199 -338 -198q-334 0 -334 329q0 104 8.5 246.5t8.5 202.5q0 139 -45 241zM221 1255l223 252 q55 66 98.5 66t98.5 -66l223 -250l-76 -67l-245 272l-246 -274z" />
<glyph unicode="&#xfc;" horiz-adv-x="1097" d="M113 999l98 33q59 -92 59 -287q0 -57 -8 -184t-8 -229q0 -127 52 -186.5t169 -59.5q102 0 175 51t153 160v723h112v-725q0 -158 80 -244l-69 -67q-88 63 -113 194q-129 -199 -338 -198q-334 0 -334 329q0 104 8.5 246.5t8.5 202.5q0 139 -45 241zM223 1356 q0 39 26.5 65.5t63.5 26.5q39 0 66 -26.5t27 -65.5q0 -37 -27 -63.5t-66 -26.5q-37 0 -63.5 26.5t-26.5 63.5zM676 1356q0 39 26.5 65.5t63.5 26.5q39 0 65.5 -26.5t26.5 -65.5q0 -37 -26.5 -63.5t-65.5 -26.5q-37 0 -63.5 26.5t-26.5 63.5z" />
<glyph unicode="&#xfd;" horiz-adv-x="1056" d="M72 999l110 31l215 -751q55 -186 195 -207l307 958l107 -35l-416 -1302q-73 -228 -352 -228l-15 101q205 0 260 164l78 243q-203 23 -274 275zM504 1231l323 256l74 -101l-352 -225z" />
<glyph unicode="&#xfe;" horiz-adv-x="1091" d="M174 0v1487h113v-592q96 145 286 145q195 0 305.5 -118.5t110.5 -300.5q0 -184 -126 -304t-328 -120q-129 0 -248 16v-213h-113zM287 324q150 -20 245 -21q154 0 247 87t93 226q0 131 -79 224.5t-220 93.5q-100 0 -184 -63.5t-102 -178.5v-368z" />
<glyph unicode="&#xff;" horiz-adv-x="1056" d="M72 999l110 31l215 -751q55 -186 195 -207l307 958l107 -35l-416 -1302q-73 -228 -352 -228l-15 101q205 0 260 164l78 243q-203 23 -274 275zM242 1356q0 39 26.5 65.5t63.5 26.5q39 0 65.5 -26.5t26.5 -65.5q0 -37 -26.5 -63.5t-65.5 -26.5q-37 0 -63.5 26.5 t-26.5 63.5zM694 1356q0 39 27 65.5t63 26.5q39 0 66 -26.5t27 -65.5q0 -37 -27 -63.5t-66 -26.5q-37 0 -63.5 26.5t-26.5 63.5z" />
<glyph unicode="&#x152;" horiz-adv-x="2084" d="M123 700.5q0 311.5 191.5 516t500.5 204.5q92 0 463 -10t428 -10q156 0 244 82l67 -70q-90 -125 -311 -125q-90 0 -516 12v-501h649v-117h-649v-565h833v-117h-800q-246 -20 -408 -20q-309 0 -500.5 204.5t-191.5 516zM248 700.5q0 -270.5 156.5 -439.5t410.5 -169 q139 0 250 14v1199q-217 4 -252 4q-252 0 -408.5 -169t-156.5 -439.5z" />
<glyph unicode="&#x153;" horiz-adv-x="1933" d="M102 505.5q0 231.5 141.5 383t368.5 151.5q158 0 271.5 -75.5t171.5 -208.5q49 129 148.5 206.5t232.5 77.5q158 0 264 -85t106 -226q0 -168 -129 -243.5t-321 -75.5h-240q37 -324 342 -324q137 0 320 98l53 -86q-174 -119 -373 -118q-317 0 -411 268 q-57 -125 -170 -196.5t-265 -71.5q-229 0 -369.5 147t-140.5 378.5zM219 512q0 -193 107.5 -309.5t285.5 -116.5q176 0 284 120t108 310q0 188 -108 303t-284 115q-178 0 -285.5 -116t-107.5 -306zM1110 516h246q334 0 334 213q0 94 -70.5 152.5t-183.5 58.5 q-143 0 -233.5 -128t-92.5 -296z" />
<glyph unicode="&#x178;" horiz-adv-x="1089" d="M72 1393l121 30l198 -592q61 -197 246 -198l274 788l117 -35l-295 -849q-57 -12 -104 -13v-524h-125v541q-168 57 -234 260zM248 1665q0 39 26.5 65.5t63.5 26.5q39 0 65.5 -26.5t26.5 -65.5q0 -37 -26.5 -63.5t-65.5 -26.5q-37 0 -63.5 26.5t-26.5 63.5zM700 1665 q0 39 27 65.5t64 26.5q39 0 65.5 -26.5t26.5 -65.5q0 -37 -27 -63.5t-65 -26.5q-37 0 -64 26.5t-27 63.5z" />
<glyph unicode="&#x2c6;" d="M211 1255l223 252q55 66 98 66t99 -66l223 -250l-76 -67l-246 272l-245 -274z" />
<glyph unicode="&#x2dc;" d="M133 1284q53 150 246 150q61 0 157.5 -36t147.5 -36q113 0 147 74l101 -37q-53 -150 -246 -150q-59 0 -157.5 36t-147.5 36q-113 0 -148 -74z" />
<glyph unicode="&#x2000;" horiz-adv-x="911" />
<glyph unicode="&#x2001;" horiz-adv-x="1823" />
<glyph unicode="&#x2002;" horiz-adv-x="911" />
<glyph unicode="&#x2003;" horiz-adv-x="1823" />
<glyph unicode="&#x2004;" horiz-adv-x="607" />
<glyph unicode="&#x2005;" horiz-adv-x="455" />
<glyph unicode="&#x2006;" horiz-adv-x="303" />
<glyph unicode="&#x2007;" horiz-adv-x="303" />
<glyph unicode="&#x2008;" horiz-adv-x="227" />
<glyph unicode="&#x2009;" horiz-adv-x="364" />
<glyph unicode="&#x200a;" horiz-adv-x="101" />
<glyph unicode="&#x2010;" horiz-adv-x="1017" d="M205 567v117h608v-117h-608z" />
<glyph unicode="&#x2011;" horiz-adv-x="1017" d="M205 567v117h608v-117h-608z" />
<glyph unicode="&#x2012;" horiz-adv-x="1017" d="M205 567v117h608v-117h-608z" />
<glyph unicode="&#x2013;" horiz-adv-x="874" d="M0 567v117h874v-117h-874z" />
<glyph unicode="&#x2014;" horiz-adv-x="1202" d="M0 567v117h1202v-117h-1202z" />
<glyph unicode="&#x2018;" horiz-adv-x="509" d="M174 1010v123q0 209 143 311l70 -68q-82 -87 -82 -243v-123q0 -29 -19.5 -48.5t-45.5 -19.5q-29 0 -47.5 19.5t-18.5 48.5z" />
<glyph unicode="&#x2019;" horiz-adv-x="509" d="M123 989q82 88 82 244v123q0 29 19.5 48t45.5 19q29 0 47.5 -19.5t18.5 -47.5v-123q0 -209 -143 -311z" />
<glyph unicode="&#x201a;" horiz-adv-x="509" d="M123 -260q82 88 82 244v122q0 29 19.5 48.5t45.5 19.5q29 0 47.5 -19.5t18.5 -48.5v-122q0 -209 -143 -312z" />
<glyph unicode="&#x201c;" horiz-adv-x="765" d="M174 1010v123q0 209 143 311l70 -68q-82 -87 -82 -243v-123q0 -29 -19.5 -48.5t-45.5 -19.5q-29 0 -47.5 19.5t-18.5 48.5zM430 1010v123q0 209 143 311l70 -68q-82 -87 -82 -243v-123q0 -29 -19.5 -48.5t-45.5 -19.5q-29 0 -47.5 19.5t-18.5 48.5z" />
<glyph unicode="&#x201d;" horiz-adv-x="765" d="M123 989q82 88 82 244v123q0 29 19.5 48t45.5 19q29 0 47.5 -19.5t18.5 -47.5v-123q0 -209 -143 -311zM379 989q82 88 82 244v123q0 29 19.5 48t45.5 19q29 0 47.5 -19.5t18.5 -47.5v-123q0 -209 -143 -311z" />
<glyph unicode="&#x201e;" horiz-adv-x="765" d="M123 -260q82 88 82 244v122q0 29 19.5 48.5t45.5 19.5q29 0 47.5 -19.5t18.5 -48.5v-122q0 -209 -143 -312zM379 -260q82 88 82 244v122q0 29 19.5 48.5t45.5 19.5q29 0 47.5 -19.5t18.5 -48.5v-122q0 -209 -143 -312z" />
<glyph unicode="&#x2022;" horiz-adv-x="755" d="M205 643q0 70 51 122t121 52q74 0 124 -51t50 -123t-50 -122t-124 -50q-70 0 -121 50t-51 122z" />
<glyph unicode="&#x2026;" horiz-adv-x="1923" d="M1487 92q0 47 33.5 82t80.5 35q49 0 83 -35t34 -82t-33.5 -81t-83.5 -34q-47 0 -80.5 34t-33.5 81zM846 92q0 47 33.5 82t80.5 35q49 0 83 -35t34 -82t-33.5 -81t-83.5 -34q-47 0 -80.5 34t-33.5 81zM205 92q0 47 33.5 82t80.5 35q49 0 83 -35t34 -82t-33.5 -81 t-83.5 -34q-47 0 -80.5 34t-33.5 81z" />
<glyph unicode="&#x202f;" horiz-adv-x="364" />
<glyph unicode="&#x2039;" horiz-adv-x="829" d="M122.5 514q0.5 43 65.5 98l422 377l76 -84l-442 -391l442 -391l-76 -84l-422 377q-66 55 -65.5 98z" />
<glyph unicode="&#x203a;" horiz-adv-x="829" d="M143 123l443 391l-443 391l76 84l422 -377q66 -55 66 -98t-66 -98l-422 -377z" />
<glyph unicode="&#x205f;" horiz-adv-x="455" />
<glyph unicode="&#x20ac;" horiz-adv-x="1091" d="M41 485l22 107h134q-2 27 -2 82v37h-154l22 106h138q57 543 542 543q88 0 226 -12v-113q-168 12 -226 12q-199 0 -298 -108.5t-119 -321.5h505l-18 -106h-494v-37q0 -55 3 -82h473l-17 -107h-446q61 -393 411 -393q147 0 295 94l54 -92q-147 -115 -349 -114 q-469 0 -536 505h-166z" />
<glyph unicode="&#x2122;" horiz-adv-x="2832" d="M1360 0v1419h38l545 -694q15 -22 43 -49l613 743h39v-1419h-125v930q0 94 16 233q-125 -174 -176 -233l-279 -330q91 -65 187 -88l-31 -92q-240 51 -412 262l-200 248q-68 84 -150 211q16 -135 16 -211v-930h-124zM31 1284v117h1104v-117h-490v-1284h-125v1284h-489z" />
<glyph unicode="&#xe000;" horiz-adv-x="1030" d="M0 1030h1030v-1030h-1030v1030z" />
<glyph unicode="&#xfb01;" horiz-adv-x="1287" d="M917 967l69 67q125 -90 125 -311v-723h-112v723q0 156 -82 244zM943 1356q0 39 28 67.5t66 28.5q41 0 69 -27.5t28 -68.5q0 -39 -29 -66.5t-67.5 -27.5t-66.5 27.5t-28 66.5zM174 -512v1524q0 491 321 491h1q145 0 222 -84t77 -207q0 -182 -111 -290.5t-299 -108.5h-98 v-221h303v-107h-303v-997h-113zM287 920h98q150 0 221.5 83.5t71.5 208.5q0 78 -48 131.5t-134 53.5q-209 0 -209 -379v-98z" />
<glyph unicode="&#xfb02;" horiz-adv-x="1305" d="M978 293v1194h113v-1194q0 -156 82 -244l-70 -67q-125 90 -125 311zM174 -512v1524q0 491 321 491h1q145 0 222 -84t77 -207q0 -182 -111 -290.5t-299 -108.5h-98v-221h303v-107h-303v-997h-113zM287 920h98q150 0 221.5 83.5t71.5 208.5q0 78 -48 131.5t-134 53.5 q-209 0 -209 -379v-98z" />
<glyph unicode="&#xfb03;" horiz-adv-x="2091" d="M1721 967l69 67q125 -90 125 -311v-723h-112v723q0 156 -82 244zM1747 1356q0 39 28 67.5t66 28.5q41 0 69 -27.5t28 -68.5q0 -39 -29 -66.5t-67.5 -27.5t-66.5 27.5t-28 66.5zM978 -512v1524q0 491 321 491h1q145 0 222 -84t77 -207q0 -182 -111 -290.5t-299 -108.5h-98 v-221h303v-107h-303v-997h-113zM1091 920h98q150 0 221.5 83.5t71.5 208.5q0 78 -48 131.5t-134 53.5q-209 0 -209 -379v-98zM174 -512v1524q0 491 321 491h1q145 0 222 -84t77 -207q0 -182 -111 -290.5t-299 -108.5h-98v-221h303v-107h-303v-997h-113zM287 920h98 q150 0 221.5 83.5t71.5 208.5q0 78 -48 131.5t-134 53.5q-209 0 -209 -379v-98z" />
<glyph unicode="&#xfb04;" horiz-adv-x="2109" d="M1782 293v1194h113v-1194q0 -156 82 -244l-70 -67q-125 90 -125 311zM978 -512v1524q0 491 321 491h1q145 0 222 -84t77 -207q0 -182 -111 -290.5t-299 -108.5h-98v-221h303v-107h-303v-997h-113zM1091 920h98q150 0 221.5 83.5t71.5 208.5q0 78 -48 131.5t-134 53.5 q-209 0 -209 -379v-98zM174 -512v1524q0 491 321 491h1q145 0 222 -84t77 -207q0 -182 -111 -290.5t-299 -108.5h-98v-221h303v-107h-303v-997h-113zM287 920h98q150 0 221.5 83.5t71.5 208.5q0 78 -48 131.5t-134 53.5q-209 0 -209 -379v-98z" />
</font>
</defs>
</svg>
